<svg width="99" height="77" viewBox="0 0 99 77" fill="none" xmlns="http://www.w3.org/2000/svg">
<path fill-rule="evenodd" clip-rule="evenodd" d="M81.362 6.36134H19.1884V17.5371H13.7102V0.996124H86.8412V31.0806H81.362V6.36134ZM38.7969 76.9963H-9.9e-05V19.9742H38.7969V76.9963ZM18.3482 72.3027C18.3482 73.3101 19.1842 74.1379 20.2169 74.1379C21.2503 74.1379 22.0906 73.3101 22.0877 72.3027C22.0877 71.294 21.2503 70.4724 20.2169 70.4724C19.1842 70.4724 18.3482 71.294 18.3482 72.3027ZM33.1905 25.4691H5.61043V67.5418H33.1885L33.1905 25.4691ZM41.2975 42.8722H70.1106V48.2383H41.2975V42.8722ZM72.9428 76.1053V33.1624H98.9999V76.1053H72.9428ZM87.179 35.5573C87.179 35.2153 86.8981 34.9406 86.5502 34.9406C86.2023 34.9406 85.9194 35.2132 85.9194 35.5573C85.9194 35.8947 86.2023 36.1761 86.5502 36.1761C86.8981 36.1761 87.179 35.8947 87.179 35.5573ZM90.2978 37.0005H82.8024V37.5895H90.2978V37.0005ZM84.8004 72.7761C84.8004 73.589 85.476 74.2515 86.3038 74.2515C87.1321 74.2515 87.8075 73.589 87.8075 72.7761C87.8075 71.9623 87.1321 71.3047 86.3038 71.3047C85.4717 71.3047 84.8004 71.9669 84.8004 72.7761ZM77.1239 69.2287C80.4788 69.256 88.0517 69.232 94.8189 69.194V39.699L77.1239 39.7032V69.2287ZM41.2975 50.4337H49.2273H51.3127H70.1106V58.0513H41.2975V55.1115H60.611V53.6865H41.2975V50.4337Z" fill="white"/>
</svg>
