<svg width="58" height="98" viewBox="0 0 58 98" fill="none" xmlns="http://www.w3.org/2000/svg">
<path fill-rule="evenodd" clip-rule="evenodd" d="M15.7001 35.976L15.711 20.1276C15.711 18.2973 16.3968 16.5853 17.6508 15.3064C19.0439 13.8999 21.0372 13.0966 23.1376 13.0966C24.7774 13.0966 26.3529 13.6071 27.5745 14.5158C29.0535 15.6216 29.975 17.2904 30.1681 19.1957C30.1681 19.2387 31.0145 27.5049 31.7754 34.9036C37.1017 31.74 40.6921 25.8915 40.6921 19.1957C40.6921 9.14315 32.6327 0.995926 22.6877 0.995926C12.7425 0.995926 4.68315 9.14315 4.68315 19.1957C4.6726 26.735 9.21661 33.213 15.7001 35.976ZM16.4184 95.8308C16.4184 97.0205 17.3829 97.9961 18.5617 97.9961H50.2408C51.4197 97.9961 52.384 97.0205 52.384 95.8308V90.8662H16.4184V95.8308ZM54.6668 52.0204C56.6603 52.6694 57.9999 54.5434 57.9999 56.6562L57.9785 73.925C57.9785 76.493 57.2923 79.0057 55.9956 81.2047L52.3627 87.4126H16.3968C6.38713 77.1634 1.30761 66.2342 0.535804 61.5431C0 58.3246 2.21844 56.1705 4.68315 56.1705C6.0871 56.1705 7.57689 56.8623 8.69142 58.4757C9.04504 58.9975 9.43086 59.5596 9.85965 60.1767C13.0257 64.8127 16.2755 64.9096 17.7584 64.9538L17.8113 64.9554H17.8435C17.8866 64.9554 17.9402 64.9554 17.9829 64.943H18.0044C18.5187 64.8687 18.8938 64.4345 18.8938 63.9145L18.9155 20.1157C18.9045 17.6575 21.0479 16.3366 23.127 16.3366C24.9595 16.3366 26.7386 17.3643 26.9639 19.5324C26.9639 19.5762 29.7288 46.604 29.7394 46.6895V46.7018H29.7499C30.511 46.0183 31.7754 45.6188 33.2222 45.6188C33.7583 45.6188 34.3155 45.6725 34.8834 45.7795C36.716 46.1487 48.7191 50.0584 54.6668 52.0204Z" fill="#18CFAB"/>
</svg>
