<svg width="60" height="97" viewBox="0 0 60 97" fill="none" xmlns="http://www.w3.org/2000/svg">
<path fill-rule="evenodd" clip-rule="evenodd" d="M47.9999 75.9973C47.9999 77.6546 46.6582 78.9958 45 78.9958H15C13.3418 78.9958 11.9999 77.6546 11.9999 75.9973C11.9999 74.3385 13.3418 72.9964 15 72.9964H45C46.6582 72.9964 47.9999 74.3385 47.9999 75.9973ZM45 81.9966H15C13.3418 81.9966 11.9999 83.3374 11.9999 84.9966C11.9999 86.6559 13.3418 87.9959 15 87.9959H45C46.6582 87.9959 47.9999 86.6559 47.9999 84.9966C47.9999 83.3374 46.6582 81.9966 45 81.9966ZM24 96.9961H35.9999C39.3164 96.9961 41.9999 94.3129 41.9999 90.9964H17.9999C17.9999 94.3129 20.6836 96.9961 24 96.9961ZM60 30.9961C60 47.3083 50.1679 49.2067 48.3222 66.996C48.3222 68.6548 46.9804 69.9968 45.3223 69.9968H14.6777C13.0194 69.9968 11.6777 68.6548 11.6777 66.996H11.6718C9.83208 49.2067 0 47.3083 0 30.9961C0 14.4266 13.4296 0.995968 30 0.995968C46.5703 0.995968 60 14.4266 60 30.9961ZM42.1464 21.9967C7.27146 30.2459 24.1465 51.9969 24.1465 51.9969C24.1465 39.9959 32.959 37.1833 33.1465 37.5592C26.959 43.5593 24.1465 63.9963 24.1465 63.9963H30.1465C30.1465 63.9963 30.1465 57.9958 30.1465 51.9969C47.209 52.9337 42.1464 24.058 42.1464 21.9967Z" fill="#18CFAB"/>
</svg>
