<svg width="45" height="45" viewBox="0 0 45 45" fill="none" xmlns="http://www.w3.org/2000/svg">
<path d="M37 32.1429V20.5714C37 18.4412 35.0025 16.7143 32.5385 16.7143H12.4615C9.9975 16.7143 8 18.4412 8 20.5714V32.1429C8 34.2731 9.9975 36 12.4615 36H32.5385C35.0025 36 37 34.2731 37 32.1429Z" fill="#B1D0FF"/>
<path d="M23.2919 28.9704L27.7535 25.1132C27.9635 24.9316 28.0815 24.6854 28.0815 24.4286C28.0815 24.1718 27.9635 23.9255 27.7535 23.7439C27.5434 23.5624 27.2586 23.4603 26.9615 23.4603C26.6645 23.4603 26.3796 23.5624 26.1696 23.7439L23.6154 25.9618V9.96429C23.6154 9.70854 23.4979 9.46327 23.2887 9.28243C23.0795 9.10159 22.7958 9 22.5 9C22.2042 9 21.9205 9.10159 21.7113 9.28243C21.5021 9.46327 21.3846 9.70854 21.3846 9.96429V25.9618L18.8304 23.7439C18.7267 23.6536 18.6033 23.5818 18.4674 23.5329C18.3315 23.4839 18.1857 23.4587 18.0385 23.4587C17.8912 23.4587 17.7454 23.4839 17.6095 23.5329C17.4736 23.5818 17.3502 23.6536 17.2465 23.7439C17.142 23.8336 17.059 23.9402 17.0024 24.0577C16.9458 24.1752 16.9166 24.3013 16.9166 24.4286C16.9166 24.5559 16.9458 24.6819 17.0024 24.7994C17.059 24.9169 17.142 25.0236 17.2465 25.1132L21.7081 28.9704C21.8118 29.0607 21.9351 29.1325 22.071 29.1814C22.207 29.2304 22.3528 29.2556 22.5 29.2556C22.6472 29.2556 22.793 29.2304 22.9289 29.1814C23.0649 29.1325 23.1882 29.0607 23.2919 28.9704Z" fill="#0593FF"/>
<path d="M22.5 44.5C34.6503 44.5 44.5 34.6503 44.5 22.5C44.5 10.3497 34.6503 0.5 22.5 0.5C10.3497 0.5 0.5 10.3497 0.5 22.5C0.5 34.6503 10.3497 44.5 22.5 44.5Z" stroke="#0593FF"/>
</svg>
