<svg width="44" height="30" viewBox="0 0 44 30" fill="none" xmlns="http://www.w3.org/2000/svg">
<path fill-rule="evenodd" clip-rule="evenodd" d="M9.65848 10.9026C14.9691 10.9026 19.2741 15.1757 19.2741 20.4485C19.2741 25.7195 14.9691 29.993 9.65848 29.993C4.34795 29.993 0.0429 25.7195 0.0429 20.4485L0 19.0841C0 8.54118 8.61005 -0.00627 19.2312 -0.00627V5.44737C15.562 5.44737 12.1124 6.86622 9.51795 9.44247C9.0185 9.93774 8.56271 10.466 8.15162 11.0212C8.64257 10.9452 9.14575 10.9026 9.65848 10.9026ZM34.3843 10.9026C39.6949 10.9026 43.9999 15.1757 43.9999 20.4485C43.9999 25.7195 39.6949 29.993 34.3843 29.993C29.0738 29.993 24.7687 25.7195 24.7687 20.4485L24.7258 19.0841C24.7258 8.54118 33.3359 -0.00627 43.957 -0.00627V5.44737C40.2879 5.44737 36.8383 6.86622 34.2438 9.44247C33.7443 9.93774 33.2886 10.466 32.8774 11.0212C33.3685 10.9452 33.8715 10.9026 34.3843 10.9026Z" fill="#18CFAB"/>
</svg>
