<svg width="16" height="16" viewBox="0 0 16 16" fill="none" xmlns="http://www.w3.org/2000/svg">
<path fill-rule="evenodd" clip-rule="evenodd" d="M9.90158 8.00004L15.6062 2.29544C16.1313 1.77033 16.1313 0.918951 15.6062 0.393911C15.0811 -0.131204 14.2297 -0.131204 13.7046 0.393911L7.99997 6.09858L2.29531 0.393836C1.77019 -0.131279 0.918893 -0.131279 0.393779 0.393836C-0.13126 0.918951 -0.13126 1.77033 0.393779 2.29537L6.09844 7.99996L0.393779 13.7046C-0.13126 14.2297 -0.13126 15.0811 0.393779 15.6062C0.918893 16.1313 1.77019 16.1313 2.29531 15.6062L7.99997 9.90149L13.7046 15.6062C14.2297 16.1313 15.0811 16.1313 15.6062 15.6062C16.1313 15.081 16.1313 14.2297 15.6062 13.7046L9.90158 8.00004Z" fill="#969696"/>
</svg>
