<svg width="28" height="28" viewBox="0 0 28 28" fill="none" xmlns="http://www.w3.org/2000/svg">
<rect width="28" height="28" rx="4" fill="#E6E6E6"/>
<path fill-rule="evenodd" clip-rule="evenodd" d="M15.9016 14L21.6062 8.29544C22.1313 7.77033 22.1313 6.91895 21.6062 6.39391C21.0811 5.8688 20.2297 5.8688 19.7046 6.39391L14 12.0986L8.29531 6.39384C7.77019 5.86872 6.91889 5.86872 6.39378 6.39384C5.86874 6.91895 5.86874 7.77033 6.39378 8.29537L12.0984 14L6.39378 19.7046C5.86874 20.2297 5.86874 21.0811 6.39378 21.6062C6.91889 22.1313 7.77019 22.1313 8.29531 21.6062L14 15.9015L19.7046 21.6062C20.2297 22.1313 21.0811 22.1313 21.6062 21.6062C22.1313 21.081 22.1313 20.2297 21.6062 19.7046L15.9016 14Z" fill="#969696"/>
</svg>
