<svg width="45" height="45" viewBox="0 0 45 45" fill="none" xmlns="http://www.w3.org/2000/svg">
<path d="M25.0846 29.1477C23.8855 29.1511 22.7084 28.8464 21.6819 28.2668C20.6553 27.6872 19.8187 26.8549 19.2634 25.8609C18.7081 24.8669 18.4555 23.7494 18.533 22.6302C18.6106 21.5111 19.0154 20.4334 19.7032 19.5148C19.8957 19.2602 20.1885 19.0876 20.5171 19.0349C20.8456 18.9822 21.1831 19.0538 21.4553 19.2338C21.7275 19.4139 21.912 19.6877 21.9684 19.995C22.0247 20.3023 21.9482 20.6179 21.7557 20.8725C21.2077 21.5967 20.9533 22.4797 21.0382 23.3634C21.123 24.247 21.5415 25.0735 22.2187 25.6948C22.5944 26.048 23.0409 26.3283 23.5328 26.5195C24.0246 26.7108 24.552 26.8092 25.0846 26.8092C25.6173 26.8092 26.1447 26.7108 26.6365 26.5195C27.1283 26.3283 27.5749 26.048 27.9505 25.6948L35.4595 18.672C36.1824 17.9542 36.5779 17.0012 36.5621 16.0152C36.5464 15.0291 36.1205 14.0876 35.375 13.3903C34.6294 12.693 33.6227 12.2948 32.5684 12.28C31.5142 12.2653 30.4952 12.6352 29.7277 13.3113L26.5364 16.296C26.4197 16.4051 26.2811 16.4917 26.1287 16.5507C25.9762 16.6098 25.8128 16.6402 25.6478 16.6402C25.4828 16.6402 25.3194 16.6098 25.1669 16.5507C25.0145 16.4917 24.8759 16.4051 24.7592 16.296C24.6426 16.1868 24.55 16.0573 24.4868 15.9147C24.4237 15.7721 24.3912 15.6193 24.3912 15.4649C24.3912 15.3106 24.4237 15.1578 24.4868 15.0152C24.55 14.8726 24.6426 14.743 24.7592 14.6339L27.9505 11.6492C29.1961 10.5638 30.8434 9.97287 32.5456 10.001C34.2477 10.029 35.8718 10.674 37.0756 11.7998C38.2794 12.9257 38.9689 14.4446 38.999 16.0365C39.029 17.6285 38.3972 19.1692 37.2366 20.3341L29.7277 27.3569C29.1175 27.926 28.3934 28.3772 27.5967 28.6844C26.8 28.9917 25.9464 29.1491 25.0846 29.1477V29.1477Z" fill="#0593FF"/>
<path d="M12.5697 35C11.271 35.0022 10.0008 34.6437 8.92017 33.9699C7.83955 33.2961 6.99718 32.3374 6.49985 31.2154C6.00253 30.0933 5.87264 28.8584 6.12666 27.6672C6.38069 26.476 7.00718 25.3821 7.92672 24.5243L15.4357 17.5016C16.0446 16.9308 16.7684 16.4787 17.5654 16.1713C18.3624 15.8639 19.2166 15.7074 20.0787 15.7107C21.8172 15.7167 23.4841 16.3596 24.7217 17.5016C25.8134 18.5176 26.4863 19.8617 26.6214 21.2966C26.7565 22.7314 26.3452 24.1648 25.4601 25.3437C25.2676 25.5982 24.9748 25.7708 24.6462 25.8235C24.3177 25.8762 23.9802 25.8046 23.708 25.6246C23.4358 25.4445 23.2513 25.1707 23.1949 24.8634C23.1386 24.5561 23.2151 24.2405 23.4076 23.9859C23.9556 23.2617 24.21 22.3787 24.1251 21.4951C24.0403 20.6114 23.6218 19.7849 22.9446 19.1636C22.1926 18.434 21.162 18.0131 20.0787 17.9932C19.5416 17.9991 19.0112 18.1058 18.5189 18.3069C18.0267 18.5079 17.5825 18.7992 17.2128 19.1636L9.70383 26.1864C8.9809 26.9043 8.58539 27.8572 8.60117 28.8433C8.61695 29.8293 9.04277 30.7708 9.78834 31.4681C10.5339 32.1654 11.5406 32.5636 12.5949 32.5784C13.6491 32.5932 14.6681 32.2232 15.4357 31.5471L18.6269 28.5624C18.7436 28.4533 18.8822 28.3667 19.0346 28.3077C19.1871 28.2486 19.3505 28.2182 19.5155 28.2182C19.6805 28.2182 19.8439 28.2486 19.9964 28.3077C20.1488 28.3667 20.2874 28.4533 20.4041 28.5624C20.5208 28.6716 20.6133 28.8011 20.6765 28.9437C20.7396 29.0863 20.7721 29.2391 20.7721 29.3935C20.7721 29.5478 20.7396 29.7006 20.6765 29.8432C20.6133 29.9858 20.5208 30.1154 20.4041 30.2245L17.2128 33.2092C16.6026 33.7784 15.8785 34.2295 15.0818 34.5368C14.2851 34.844 13.4315 35.0015 12.5697 35V35Z" fill="#D8E1EF"/>
<circle cx="22.5" cy="22.5" r="22" stroke="#0593FF"/>
</svg>
