<svg width="197" height="67" viewBox="0 0 197 67" fill="none" xmlns="http://www.w3.org/2000/svg">
<g clip-path="url(#clip0_0_606)">
<path d="M78.0142 43.1916C77.5882 43.575 77.0556 43.8732 76.4166 44.0862C75.7988 44.278 75.1491 44.3738 74.4675 44.3738C72.8911 44.3738 71.6769 43.9478 70.8249 43.0957C69.9728 42.2436 69.5467 41.0401 69.5467 39.4851V29.3241H66.5432V27.4069H69.5467V23.7324H71.8154V27.4069H76.9278V29.3241H71.8154V39.3572C71.8154 40.3584 72.0604 41.1253 72.5503 41.6578C73.0615 42.1691 73.7858 42.4247 74.7231 42.4247C75.1917 42.4247 75.6391 42.3501 76.0651 42.201C76.5124 42.0519 76.8959 41.8389 77.2154 41.562L78.0142 43.1916ZM90.7074 27.2791C92.8163 27.2791 94.4885 27.8969 95.724 29.1324C96.9808 30.3466 97.6092 32.1253 97.6092 34.4685V44.2141H95.3406V34.6921C95.3406 32.9454 94.9039 31.614 94.0305 30.6981C93.1571 29.7821 91.911 29.3241 90.292 29.3241C88.4814 29.3241 87.0435 29.8673 85.9784 30.9537C84.9346 32.0188 84.4127 33.4992 84.4127 35.3951V44.2141H82.1441V20.5052H84.4127V30.3466C85.0305 29.3667 85.8826 28.6105 86.969 28.0779C88.0553 27.5454 89.3015 27.2791 90.7074 27.2791ZM118.465 36.5135H104.406C104.534 38.2602 105.205 39.6768 106.419 40.7632C107.633 41.8282 109.167 42.3608 111.02 42.3608C112.064 42.3608 113.022 42.1797 113.896 41.8176C114.769 41.4342 115.525 40.8803 116.164 40.1561L117.443 41.6259C116.697 42.5206 115.76 43.2022 114.631 43.6709C113.523 44.1395 112.298 44.3738 110.956 44.3738C109.231 44.3738 107.697 44.0117 106.355 43.2874C105.034 42.5419 104.001 41.5194 103.256 40.22C102.51 38.9206 102.137 37.4507 102.137 35.8105C102.137 34.1703 102.489 32.7004 103.192 31.401C103.916 30.1016 104.896 29.0898 106.131 28.3655C107.388 27.6413 108.794 27.2791 110.349 27.2791C111.904 27.2791 113.299 27.6413 114.535 28.3655C115.77 29.0898 116.74 30.1016 117.443 31.401C118.146 32.6791 118.497 34.149 118.497 35.8105L118.465 36.5135ZM110.349 29.2282C108.73 29.2282 107.367 29.7501 106.259 30.7939C105.173 31.8164 104.555 33.1584 104.406 34.82H116.324C116.175 33.1584 115.547 31.8164 114.439 30.7939C113.353 29.7501 111.989 29.2282 110.349 29.2282Z" fill="white"/>
<path d="M143.117 21.8472V44.2141H137.941V35.0436H127.78V44.2141H122.603V21.8472H127.78V30.6661H137.941V21.8472H143.117ZM154.991 26.7679C157.654 26.7679 159.699 27.4069 161.126 28.685C162.553 29.9418 163.267 31.8484 163.267 34.4046V44.2141H158.602V42.0732C157.665 43.6709 155.918 44.4697 153.362 44.4697C152.041 44.4697 150.891 44.246 149.911 43.7987C148.952 43.3513 148.217 42.7336 147.706 41.9454C147.195 41.1572 146.939 40.2626 146.939 39.2614C146.939 37.6637 147.536 36.4069 148.729 35.491C149.943 34.575 151.807 34.117 154.32 34.117H158.282C158.282 33.0306 157.952 32.1998 157.292 31.6247C156.631 31.0282 155.641 30.73 154.32 30.73C153.404 30.73 152.499 30.8791 151.604 31.1774C150.731 31.4543 149.985 31.8377 149.368 32.3276L147.578 28.8448C148.515 28.1844 149.634 27.6732 150.933 27.3111C152.254 26.9489 153.607 26.7679 154.991 26.7679ZM154.608 41.1146C155.46 41.1146 156.216 40.9229 156.876 40.5395C157.537 40.1348 158.005 39.549 158.282 38.7821V37.0247H154.863C152.818 37.0247 151.796 37.6957 151.796 39.0377C151.796 39.6768 152.041 40.188 152.531 40.5714C153.042 40.9336 153.734 41.1146 154.608 41.1146ZM189.794 26.7679C191.945 26.7679 193.649 27.4069 194.906 28.685C196.184 29.9418 196.823 31.8377 196.823 34.3726V44.2141H191.839V35.1395C191.839 33.7762 191.551 32.7643 190.976 32.104C190.422 31.4223 189.623 31.0815 188.58 31.0815C187.408 31.0815 186.481 31.4649 185.8 32.2318C185.118 32.9774 184.777 34.0957 184.777 35.5868V44.2141H179.793V35.1395C179.793 32.4342 178.706 31.0815 176.533 31.0815C175.383 31.0815 174.467 31.4649 173.785 32.2318C173.104 32.9774 172.763 34.0957 172.763 35.5868V44.2141H167.778V27.0235H172.539V29.0046C173.178 28.2803 173.956 27.7265 174.872 27.343C175.809 26.9596 176.832 26.7679 177.939 26.7679C179.153 26.7679 180.251 27.0129 181.23 27.5028C182.21 27.9714 182.998 28.6637 183.595 29.5797C184.298 28.685 185.182 27.9927 186.247 27.5028C187.333 27.0129 188.516 26.7679 189.794 26.7679Z" fill="#18CFAB"/>
<path fill-rule="evenodd" clip-rule="evenodd" d="M58 50L29.4854 66.9989L0 51V17L28.5145 -0.00154114L58 16V50Z" fill="#18CFAB"/>
<path d="M35.52 19H42V47H35.52V19ZM22.8 47H16.32V19H22.8V47ZM36 35.52H22.32V30.04H36V35.52Z" fill="white"/>
</g>
<defs>
<clipPath id="clip0_0_606">
<rect width="197" height="67" fill="white"/>
</clipPath>
</defs>
</svg>
