<svg width="91" height="55" viewBox="0 0 91 55" fill="none" xmlns="http://www.w3.org/2000/svg">
<rect width="91" height="55" rx="10" fill="#F2F2F2"/>
<path d="M53.3373 13.7656H36.3669V41.4458H53.3373V13.7656Z" fill="#FF5C00"/>
<path d="M38.7875 27.6057C38.7881 24.9428 39.3911 22.3146 40.5513 19.9178C41.7116 17.521 43.399 15.4178 45.4873 13.7656C42.8903 11.7236 39.771 10.4536 36.4863 10.1007C33.2015 9.74785 29.8837 10.3263 26.9121 11.77C23.9406 13.2137 21.4352 15.4643 19.6824 18.2646C17.9295 21.065 17 24.302 17 27.6057C17 30.9093 17.9295 34.1464 19.6824 36.9467C21.4352 39.747 23.9406 41.9977 26.9121 43.4414C29.8837 44.885 33.2015 45.4635 36.4863 45.1106C39.771 44.7577 42.8903 43.4877 45.4873 41.4458C43.399 39.7936 41.7116 37.6903 40.5513 35.2935C39.3911 32.8967 38.7881 30.2685 38.7875 27.6057V27.6057Z" fill="#EB001B"/>
<path d="M74 27.6056C74.0023 30.9069 73.0756 34.1422 71.3256 36.9415C69.5756 39.7408 67.0732 41.9911 64.1044 43.4349C61.1356 44.8788 57.8204 45.458 54.5379 45.1062C51.2554 44.7544 48.1382 43.4859 45.5428 41.4457C47.6316 39.794 49.3194 37.6908 50.4797 35.2939C51.64 32.897 52.2428 30.2686 52.2428 27.6056C52.2428 24.9427 51.64 22.3142 50.4797 19.9174C49.3194 17.5205 47.6316 15.4173 45.5428 13.7655C48.1382 11.7254 51.2554 10.4569 54.5379 10.1051C57.8204 9.75331 61.1356 10.3325 64.1044 11.7763C67.0732 13.2202 69.5756 15.4705 71.3256 18.2698C73.0756 21.0691 74.0023 24.3044 74 27.6056V27.6056Z" fill="#F79E1B"/>
</svg>
