<svg width="91" height="55" viewBox="0 0 91 55" fill="none" xmlns="http://www.w3.org/2000/svg">
<rect width="91" height="55" rx="10" fill="#F2F2F2"/>
<path d="M44.071 33.2273V33.0653C44.089 31.3471 44.2689 29.9796 44.6108 28.9631C44.9527 27.9465 45.4384 27.1233 46.0682 26.4936C46.6979 25.8639 47.4536 25.2836 48.3352 24.7528C48.866 24.429 49.3428 24.0466 49.7656 23.6058C50.1884 23.156 50.5213 22.6387 50.7642 22.054C51.0161 21.4692 51.142 20.8215 51.142 20.1108C51.142 19.2292 50.9351 18.4645 50.5213 17.8168C50.1075 17.169 49.5542 16.6697 48.8615 16.3189C48.1688 15.968 47.3996 15.7926 46.554 15.7926C45.8163 15.7926 45.1056 15.9455 44.4219 16.2514C43.7382 16.5573 43.1669 17.0386 42.7081 17.6953C42.2493 18.352 41.9839 19.2112 41.9119 20.2727H38.5114C38.5833 18.7434 38.9792 17.4344 39.6989 16.3459C40.4276 15.2573 41.3857 14.4252 42.5732 13.8494C43.7696 13.2737 45.0966 12.9858 46.554 12.9858C48.1373 12.9858 49.5137 13.3007 50.6832 13.9304C51.8617 14.5601 52.7704 15.4238 53.4091 16.5213C54.0568 17.6188 54.3807 18.8693 54.3807 20.2727C54.3807 21.2623 54.2277 22.1574 53.9219 22.9581C53.625 23.7588 53.1932 24.474 52.6264 25.1037C52.0687 25.7334 51.3939 26.2912 50.6023 26.777C49.8106 27.2718 49.1764 27.7936 48.6996 28.3423C48.2228 28.8821 47.8764 29.5253 47.6605 30.272C47.4446 31.0187 47.3277 31.9498 47.3097 33.0653V33.2273H44.071ZM45.7983 41.2159C45.1326 41.2159 44.5613 40.9775 44.0845 40.5007C43.6077 40.0239 43.3693 39.4527 43.3693 38.7869C43.3693 38.1212 43.6077 37.55 44.0845 37.0732C44.5613 36.5964 45.1326 36.358 45.7983 36.358C46.464 36.358 47.0353 36.5964 47.5121 37.0732C47.9889 37.55 48.2273 38.1212 48.2273 38.7869C48.2273 39.2277 48.1148 39.6326 47.8899 40.0014C47.674 40.3703 47.3816 40.6671 47.0128 40.892C46.6529 41.108 46.2481 41.2159 45.7983 41.2159Z" fill="black"/>
</svg>
