<svg width="402" height="402" viewBox="0 0 402 402" fill="none" xmlns="http://www.w3.org/2000/svg">
<g clip-path="url(#clip0_3_2)">
<path d="M394 154.175C388.669 148.845 382.194 146.181 374.583 146.181H255.811V27.406C255.811 19.795 253.145 13.322 247.817 7.992C242.488 2.666 236.02 0 228.398 0H173.586C165.974 0 159.502 2.663 154.172 7.993C148.842 13.323 146.178 19.796 146.178 27.407V146.182H27.407C19.796 146.182 13.323 148.846 7.993 154.176C2.663 159.506 0 165.973 0 173.589V228.408C0 236.026 2.662 242.494 7.992 247.819C13.322 253.151 19.795 255.813 27.406 255.813H146.177V374.59C146.177 382.201 148.841 388.679 154.171 394.007C159.501 399.332 165.973 401.994 173.585 401.994H228.401C236.018 401.994 242.487 399.332 247.818 394.007C253.15 388.676 255.812 382.201 255.812 374.59V255.813H374.582C382.2 255.813 388.671 253.151 393.999 247.819C399.328 242.494 401.993 236.026 401.993 228.408V173.589C401.991 165.973 399.332 159.502 394 154.175Z" fill="white"/>
</g>
<defs>
<clipPath id="clip0_3_2">
<rect width="401.994" height="401.994" fill="white"/>
</clipPath>
</defs>
</svg>
