<svg width="91" height="55" viewBox="0 0 91 55" fill="none" xmlns="http://www.w3.org/2000/svg">
<rect width="91" height="55" rx="10" fill="#F2F2F2"/>
<path d="M35.0614 36.7717L38.3632 17.3959H43.6444L40.3402 36.7717H35.0614Z" fill="#0E4595"/>
<path d="M59.4202 17.8138C58.374 17.4212 56.7345 17 54.687 17C49.4685 17 45.7927 19.6279 45.7613 23.3942C45.7319 26.1783 48.3856 27.7314 50.3888 28.6582C52.4446 29.6081 53.1356 30.2137 53.1257 31.0617C53.1125 32.3605 51.4841 32.9537 49.966 32.9537C47.8524 32.9537 46.7294 32.66 44.995 31.9368L44.3143 31.6288L43.5732 35.9662C44.8067 36.5072 47.0876 36.9757 49.4561 37C55.0076 37 58.6115 34.4021 58.6525 30.3801C58.6722 28.1759 57.2653 26.4987 54.2183 25.1158C52.3724 24.2195 51.2419 23.6214 51.2539 22.7138C51.2539 21.9084 52.2108 21.0472 54.2785 21.0472C56.0053 21.0204 57.2565 21.397 58.2312 21.7895L58.7044 22.0131L59.4202 17.8138Z" fill="#0E4595"/>
<path d="M73.0103 17.3958H68.9295C67.6653 17.3958 66.7192 17.7408 66.164 19.0026L58.3208 36.759H63.8665C63.8665 36.759 64.7731 34.3716 64.9782 33.8473C65.5842 33.8473 70.9717 33.8557 71.7418 33.8557C71.8998 34.534 72.3843 36.759 72.3843 36.759H77.2848L73.0103 17.3958ZM66.5356 29.9071C66.9725 28.7908 68.6398 24.4908 68.6398 24.4908C68.6087 24.5423 69.0734 23.369 69.34 22.6415L69.697 24.312C69.697 24.312 70.7082 28.9371 70.9195 29.9068H66.5356V29.9071V29.9071Z" fill="#0E4595"/>
<path d="M12.0675 17.3959L12 17.7989C14.0877 18.3043 15.9523 19.0357 17.5848 19.9457L22.2708 36.7406L27.8585 36.7344L36.1729 17.3959H30.5782L25.4079 30.6087L24.8572 27.9234C24.8314 27.8405 24.8033 27.7574 24.7746 27.6741L22.9772 19.0317C22.6576 17.8048 21.7305 17.4386 20.5834 17.3959H12.0675Z" fill="#0E4595"/>
</svg>
