<svg width="250" height="250" viewBox="0 0 250 250" fill="none" xmlns="http://www.w3.org/2000/svg">
<path d="M125 250C194.036 250 250 194.036 250 125C250 55.9644 194.036 0 125 0C55.9644 0 0 55.9644 0 125C0 194.036 55.9644 250 125 250Z" fill="#D5E2EB"/>
<path d="M194.183 189.652H55.8171C53.755 189.652 52.0834 187.981 52.0834 185.919V68.3169C52.0834 66.2549 53.755 64.5833 55.8171 64.5833H194.183C196.245 64.5833 197.917 66.2549 197.917 68.3169V185.919C197.917 187.981 196.245 189.652 194.183 189.652Z" fill="#3E5063"/>
<path d="M194.183 185.486H55.8171C53.755 185.486 52.0834 183.814 52.0834 181.752V60.4167H197.917V181.752C197.917 183.814 196.245 185.486 194.183 185.486Z" fill="white"/>
<path d="M197.917 60.4167H52.0834V79.7324H197.917V60.4167Z" fill="#00A388"/>
<path d="M159.598 74.5243C161.82 74.5243 163.622 72.7226 163.622 70.5002C163.622 68.2777 161.82 66.4761 159.598 66.4761C157.375 66.4761 155.574 68.2777 155.574 70.5002C155.574 72.7226 157.375 74.5243 159.598 74.5243Z" fill="#4B687F"/>
<path d="M172.636 74.5243C174.859 74.5243 176.66 72.7226 176.66 70.5002C176.66 68.2777 174.859 66.4761 172.636 66.4761C170.414 66.4761 168.612 68.2777 168.612 70.5002C168.612 72.7226 170.414 74.5243 172.636 74.5243Z" fill="#4B687F"/>
<path d="M185.674 74.5243C187.897 74.5243 189.698 72.7226 189.698 70.5002C189.698 68.2777 187.897 66.4761 185.674 66.4761C183.452 66.4761 181.65 68.2777 181.65 70.5002C181.65 72.7226 183.452 74.5243 185.674 74.5243Z" fill="#4B687F"/>
<path d="M73.9568 95.4072H96.819C98.2564 95.4072 99.4217 96.5725 99.4217 98.0099V120.872C99.4217 122.31 98.2564 123.475 96.819 123.475H73.9568C72.5194 123.475 71.3541 122.31 71.3541 120.872V98.0099C71.3541 96.5725 72.5194 95.4072 73.9568 95.4072Z" fill="#00A388"/>
<path d="M111.506 101.74H175.963C177.443 101.74 178.646 100.542 178.646 99.0551C178.646 97.5742 177.443 96.3723 175.963 96.3723H111.506C110.021 96.3723 108.822 97.5758 108.822 99.0551C108.821 100.541 110.02 101.74 111.506 101.74Z" fill="#4B687F"/>
<path d="M111.506 112.125H175.963C177.443 112.125 178.646 110.927 178.646 109.44C178.646 107.959 177.443 106.757 175.963 106.757H111.506C110.021 106.757 108.822 107.961 108.822 109.44C108.821 110.926 110.02 112.125 111.506 112.125Z" fill="#4B687F"/>
<path d="M111.506 122.51H147.893C149.373 122.51 150.576 121.312 150.576 119.825C150.576 118.344 149.373 117.143 147.893 117.143H111.506C110.021 117.143 108.822 118.346 108.822 119.825C108.821 121.31 110.02 122.51 111.506 122.51Z" fill="#4B687F"/>
<path d="M73.9568 139.157H96.819C98.2564 139.157 99.4217 140.323 99.4217 141.76V164.622C99.4217 166.06 98.2564 167.225 96.819 167.225H73.9568C72.5194 167.225 71.3541 166.06 71.3541 164.622V141.76C71.3541 140.322 72.5194 139.157 73.9568 139.157Z" fill="#00A388"/>
<path d="M111.506 145.49H175.963C177.443 145.49 178.646 144.292 178.646 142.805C178.646 141.324 177.443 140.122 175.963 140.122H111.506C110.021 140.122 108.822 141.326 108.822 142.805C108.821 144.291 110.02 145.49 111.506 145.49Z" fill="#4B687F"/>
<path d="M111.506 155.875H175.963C177.443 155.875 178.646 154.677 178.646 153.19C178.646 151.709 177.443 150.507 175.963 150.507H111.506C110.021 150.507 108.822 151.711 108.822 153.19C108.821 154.676 110.02 155.875 111.506 155.875Z" fill="#4B687F"/>
<path d="M111.506 166.26H147.893C149.373 166.26 150.576 165.062 150.576 163.575C150.576 162.095 149.373 160.893 147.893 160.893H111.506C110.021 160.893 108.822 162.096 108.822 163.575C108.821 165.06 110.02 166.26 111.506 166.26Z" fill="#4B687F"/>
</svg>
